<svg width="1493" height="1695" viewBox="0 0 1493 1695" fill="none" xmlns="http://www.w3.org/2000/svg">
<path d="M1403.23 181.76V457.49C1403.23 700.089 1206.57 896.754 963.968 896.754H529.264C286.665 896.754 90 1093.42 90 1336.02V1605.17" stroke="white" stroke-width="175.706" stroke-linecap="square"/>
<path d="M325.25 1605.17V1346.1C325.25 1222.75 425.242 1122.76 548.589 1122.76H1179.89C1303.24 1122.76 1403.23 1222.75 1403.23 1346.1V1605.17" stroke="white" stroke-width="178.671" stroke-linecap="square"/>
<path d="M715.349 658.216V747.552H894.02V658.216H715.349ZM179.336 1688.55V357.453H0.664497V1688.55H179.336ZM358.007 178.782H536.677V0.111275H358.007V178.782ZM715.349 357.453V658.216H894.02V357.453H715.349ZM536.677 178.782C635.355 178.782 715.349 258.776 715.349 357.453H894.02C894.02 160.099 734.032 0.111275 536.677 0.111275V178.782ZM179.336 357.453C179.336 258.776 259.329 178.782 358.007 178.782V0.111275C160.652 0.111275 0.664497 160.099 0.664497 357.453H179.336Z" fill="white"/>
</svg>
