<svg viewBox="-10 -10 1350 594" width="1350" height="594" fill="#b3b2fb"><path d=" M10 0 L190 0 C190 0, 200 0, 200 10 L200 178 C200 178, 200 188, 210 188 L362 188 C362 188, 372 188, 372 178 L372 10 C372 10, 372 0, 382 0 L562 0 C562 0, 572 0, 572 10 L572 174 C572 174, 572 184, 582 184 L727 184 C727 184, 737 184, 737 174 L737 10 C737 10, 737 0, 747 0 L927 0 C927 0, 937 0, 937 10 L937 174 C937 174, 937 184, 947 184 L1120 184 C1120 184, 1130 184, 1130 174 L1130 10 C1130 10, 1130 0, 1140 0 L1320 0 C1320 0, 1330 0, 1330 10 L1330 190 C1330 190, 1330 200, 1320 200 L1143 200 C1143 200, 1133 200, 1133 210 L1133 360 C1133 360, 1133 370, 1143 370 L1320 370 C1320 370, 1330 370, 1330 380 L1330 560 C1330 560, 1330 570, 1320 570 L1140 570 C1140 570, 1130 570, 1130 560 L1130 394 C1130 394, 1130 384, 1120 384 L958 384 C958 384, 948 384, 948 394 L948 560 C948 560, 948 570, 938 570 L758 570 C758 570, 748 570, 748 560 L748 394 C748 394, 748 384, 738 384 L583 384 C583 384, 573 384, 573 394 L573 564 C573 564, 573 574, 563 574 L383 574 C383 574, 373 574, 373 564 L373 398 C373 398, 373 388, 363 388 L210 388 C210 388, 200 388, 200 398 L200 559 C200 559, 200 569, 190 569 L10 569 C10 569, 0 569, 0 559 L0 379 C0 379, 0 369, 10 369 L173 369 C173 369, 183 369, 183 359 L183 210 C183 210, 183 200, 173 200 L10 200 C10 200, 0 200, 0 190 L0 10 C0 10, 0 0, 10 0, M383 210 L383 364 C383 364, 383 374, 393 374 L545 374 C545 374, 555 374, 555 364 L555 210 C555 210, 555 200, 545 200 L393 200 C393 200, 383 200, 383 210, M755 210 L755 360 C755 360, 755 370, 765 370 L923 370 C923 370, 933 370, 933 360 L933 210 C933 210, 933 200, 923 200 L765 200 C765 200, 755 200, 755 210"></path></svg>